#tb 0: 1/25
#media_type 0: video
#codec_id 0: rawvideo
#dimensions 0: 720x576
#sar 0: 16/15
0,          9,          9,        1,  1244160, 0x4dc19e70
0,         10,         10,        1,  1244160, 0x96235156
0,         11,         11,        1,  1244160, 0x4f8e700a
0,         12,         12,        1,  1244160, 0xcfae5b9e
0,         13,         13,        1,  1244160, 0x05885981
0,         14,         14,        1,  1244160, 0x2eeade5e
0,         15,         15,        1,  1244160, 0xd208cb2c
0,         16,         16,        1,  1244160, 0xdbf4419e
0,         17,         17,        1,  1244160, 0xa4221dd0
0,         18,         18,        1,  1244160, 0x18562eed
0,         19,         19,        1,  1244160, 0x146f4d85
0,         20,         20,        1,  1244160, 0x024dcc1f
0,         21,         21,        1,  1244160, 0xd5b5e7c2
0,         22,         22,        1,  1244160, 0x4961324b
0,         23,         23,        1,  1244160, 0xb0bba154
0,         24,         24,        1,  1244160, 0xeba2ca02
0,         25,         25,        1,  1244160, 0x288bd802
0,         26,         26,        1,  1244160, 0x8979b9dd
0,         27,         27,        1,  1244160, 0x0b1b3a04
0,         28,         28,        1,  1244160, 0xdefab084
0,         29,         29,        1,  1244160, 0xf2bf0d16
0,         30,         30,        1,  1244160, 0xa080b06c
0,         31,         31,        1,  1244160, 0xa9d79809
0,         32,         32,        1,  1244160, 0xb89287e7
0,         33,         33,        1,  1244160, 0xa3131327
0,         34,         34,        1,  1244160, 0x43640034
0,         35,         35,        1,  1244160, 0x714e1780
0,         36,         36,        1,  1244160, 0x91ade9c5
0,         37,         37,        1,  1244160, 0x0ea017da
0,         38,         38,        1,  1244160, 0xa81a5fef
